<svg id="Layer_1" data-name="Layer 1" xmlns="http://www.w3.org/2000/svg" viewBox="0 0 127 127"><defs><style>.cls-1{fill:#f0f0f1;}.cls-2{fill:#d0d3d6;}.cls-3{fill:#fff;}</style></defs><circle class="cls-1" cx="63.5" cy="63.5" r="63.5"/><path class="cls-2" d="M78.35,92.43H48.07v2.3c0,1.86-.78,2.6-2.74,2.6H40.16a2.19,2.19,0,0,1-2.33-2.18c0-.89,0-1.77,0-2.75H33.05a1,1,0,0,1-1-1c0-2,0-3.94,0-5.9,0-.62.43-1,1.12-1s1.14,0,1.78,0c0-.31,0-.55,0-.8,0-3.22.08-6.45,0-9.68a4.45,4.45,0,0,1,4.77-4.6c.23,0,.47,0,.83,0v-.92q0-19.05,0-38.11a1.76,1.76,0,0,1,1-1.78c.69-.36,1.33-.82,2-1.24A1.3,1.3,0,0,1,45,27.15a1.28,1.28,0,0,1,.59,1.31q0,4.74,0,9.48a14.61,14.61,0,0,0,.13,2.37c.2-.5.4-1,.59-1.51a7.69,7.69,0,0,1,7.38-5h19a7.63,7.63,0,0,1,7.48,5,6.06,6.06,0,0,0,.72,1.41V28.64a3.83,3.83,0,0,1,0-.68,1.09,1.09,0,0,1,1.73-.76c.89.52,1.76,1.09,2.64,1.65a1.38,1.38,0,0,1,.64,1.29q0,14.84,0,29.66c0,3,0,6,0,8.93,0,.52.11.76.71.71a4.43,4.43,0,0,1,4.89,4.75c-.1,3.15,0,6.31,0,9.47v.83H93c1,0,1.39.33,1.39,1.3,0,1.76,0,3.52,0,5.29,0,1-.3,1.31-1.34,1.31H88.59V95a2.21,2.21,0,0,1-2.43,2.37c-1.84,0-3.68,0-5.52,0a2.11,2.11,0,0,1-2.29-2.19Zm1-45.73H47V57H79.39ZM63.19,82.09h7.09c1.84,0,2.61-.74,2.61-2.51q0-6.21,0-12.42c0-1.88-.81-2.65-2.8-2.65H57.92c-.79,0-1.58,0-2.36,0a2.07,2.07,0,0,0-2,2.09q0,6.63,0,13.24a2.11,2.11,0,0,0,2.36,2.2Zm18.87-.57h0c.67,0,1.34,0,2,0a2,2,0,0,0,2-1.92,1.88,1.88,0,0,0-1.84-2,37.93,37.93,0,0,0-4.13,0,1.91,1.91,0,0,0-1.92,2,2,2,0,0,0,2.08,1.93C80.82,81.54,81.44,81.52,82.06,81.52Zm-37.71,0c.64,0,1.29,0,1.93,0a2,2,0,0,0,2-1.92,1.94,1.94,0,0,0-1.86-2,40.83,40.83,0,0,0-4.14,0,1.92,1.92,0,0,0-1.91,2.06,2,2,0,0,0,2.1,1.92C43.11,81.54,43.73,81.53,44.35,81.53Z"/><path class="cls-3" d="M79.39,46.7V57H47V46.7Z"/><path class="cls-3" d="M63.19,82.09H55.88a2.11,2.11,0,0,1-2.36-2.2q0-6.61,0-13.24a2.07,2.07,0,0,1,2-2.09c.78-.07,1.57,0,2.36,0H70.1c2,0,2.8.77,2.8,2.65q0,6.21,0,12.42c0,1.77-.77,2.51-2.61,2.51Zm0-1.39h7c.57,0,1-.2,1.15-.72a1.38,1.38,0,0,0-.3-1.11,1.76,1.76,0,0,0-1.12-.28q-6.83,0-13.63,0c-.85,0-1.4.42-1.4,1s.56,1.07,1.39,1.07Zm0-10.57h-7c-.77,0-1.31.48-1.29,1.09s.51,1,1.29,1h9.32c1.53,0,3.06,0,4.58,0a1.66,1.66,0,0,0,1.15-.5c.56-.71,0-1.59-1.07-1.59C67.86,70.12,65.54,70.13,63.22,70.13Zm0,4.25h-7c-.81,0-1.31.42-1.31,1.06s.5,1,1.33,1h13.9c.81,0,1.3-.42,1.29-1.06s-.48-1-1.31-1Zm0-8.44h-7c-.84,0-1.32.38-1.34,1s.51,1.08,1.31,1.09q7,0,14,0a1.11,1.11,0,0,0,1.25-1c0-.66-.46-1-1.28-1Z"/><path class="cls-3" d="M82.06,81.52c-.62,0-1.24,0-1.86,0a2,2,0,0,1-2.08-1.93,1.91,1.91,0,0,1,1.92-2,37.93,37.93,0,0,1,4.13,0,1.88,1.88,0,0,1,1.84,2,2,2,0,0,1-2,1.92c-.66,0-1.33,0-2,0Z"/><path class="cls-3" d="M44.35,81.53c-.62,0-1.24,0-1.86,0a2,2,0,0,1-2.1-1.92,1.92,1.92,0,0,1,1.91-2.06,40.83,40.83,0,0,1,4.14,0,1.94,1.94,0,0,1,1.86,2,2,2,0,0,1-2,1.92C45.64,81.55,45,81.53,44.35,81.53Z"/><path class="cls-2" d="M63.17,80.7H56.29c-.83,0-1.39-.44-1.39-1.07s.55-1,1.4-1q6.81,0,13.63,0a1.76,1.76,0,0,1,1.12.28,1.38,1.38,0,0,1,.3,1.11c-.1.52-.58.72-1.15.72h-7Z"/><path class="cls-2" d="M63.22,70.13c2.32,0,4.64,0,7,0,1,0,1.63.88,1.07,1.59a1.66,1.66,0,0,1-1.15.5c-1.52.06-3,0-4.58,0H56.2c-.78,0-1.27-.43-1.29-1s.52-1.08,1.29-1.09h7Z"/><path class="cls-2" d="M63.24,74.38h6.88c.83,0,1.31.38,1.31,1s-.48,1-1.29,1.06H56.24c-.83,0-1.32-.39-1.33-1s.5-1.06,1.31-1.06h7Z"/><path class="cls-2" d="M63.2,65.94h7c.82,0,1.28.39,1.28,1a1.11,1.11,0,0,1-1.25,1q-7,0-14,0c-.8,0-1.33-.48-1.31-1.09s.5-1,1.34-1h7Z"/></svg>